M48
; DRILL file {KiCad (6.0.6-0)} date Tuesday, July 12, 2022 at 10:46:52 AM
; FORMAT={-:-/ absolute / inch / decimal}
; #@! TF.CreationDate,2022-07-12T10:46:52-05:00
; #@! TF.GenerationSoftware,Kicad,Pcbnew,(6.0.6-0)
; #@! TF.FileFunction,Plated,1,2,PTH
FMAT,2
INCH
; #@! TA.AperFunction,Plated,PTH,ComponentDrill
T1C0.0276
; #@! TA.AperFunction,Plated,PTH,ComponentDrill
T2C0.0295
; #@! TA.AperFunction,Plated,PTH,ComponentDrill
T3C0.0354
; #@! TA.AperFunction,Plated,PTH,ComponentDrill
T4C0.0394
%
G90
G05
T1
X0.59Y-1.76
X0.89Y-1.76
T2
X0.61Y-1.49
X0.66Y-1.49
X0.71Y-1.49
T3
X0.66Y-1.1398
X0.66Y-1.2398
T4
X0.9191Y-0.85
X0.9191Y-0.95
X0.9191Y-1.05
X0.9191Y-1.15
X0.9191Y-1.25
X0.9191Y-1.35
X0.9191Y-1.45
X0.9191Y-1.55
X1.8191Y-0.85
X1.8191Y-0.95
X1.8191Y-1.05
X1.8191Y-1.15
X1.8191Y-1.25
X1.8191Y-1.35
X1.8191Y-1.45
X1.8191Y-1.55
T0
M30
